<svg width="14" height="11" viewBox="0 0 14 11" fill="none" xmlns="http://www.w3.org/2000/svg">
<path d="M11.1406 0.765634C11.3607 0.556086 11.6536 0.440239 11.9575 0.442538C12.2614 0.444838 12.5525 0.565104 12.7695 0.777959C12.9864 0.990814 13.1121 1.27961 13.1201 1.58341C13.1282 1.8872 13.0179 2.18224 12.8125 2.40626L6.57813 10.2031C6.47093 10.3186 6.34154 10.4113 6.19771 10.4756C6.05388 10.5399 5.89855 10.5746 5.74102 10.5775C5.58349 10.5804 5.42699 10.5515 5.28087 10.4926C5.13476 10.4336 5.00203 10.3458 4.89063 10.2344L0.756252 6.10001C0.641116 5.99273 0.548769 5.86335 0.484719 5.7196C0.420669 5.57585 0.386229 5.42067 0.383453 5.26333C0.380676 5.10598 0.409622 4.94968 0.468561 4.80376C0.5275 4.65784 0.615226 4.52529 0.726505 4.41401C0.837784 4.30273 0.970337 4.21501 1.11626 4.15607C1.26217 4.09713 1.41847 4.06818 1.57582 4.07096C1.73317 4.07374 1.88834 4.10818 2.03209 4.17223C2.17584 4.23628 2.30522 4.32862 2.4125 4.44376L5.68438 7.71407L11.1109 0.80001C11.1207 0.78798 11.1311 0.776503 11.1422 0.765634H11.1406Z" fill="white"/>
</svg>
