<?xml version="1.0" encoding="utf-8"?><svg viewBox="0 0 576 512" xmlns="http://www.w3.org/2000/svg" xmlns:xlink="http://www.w3.org/1999/xlink"><style>:root>svg{display:none}:root>svg:target{display:block}</style><svg viewBox="0 0 466.008 466.008" style="enable-background:new 0 0 466.008 466.008" xml:space="preserve" id="clock" xmlns="http://www.w3.org/2000/svg"><path fill="#03A9F5" d="M233.004 0C104.224 0 0 104.212 0 233.004c0 128.781 104.212 233.004 233.004 233.004 128.782 0 233.004-104.212 233.004-233.004C466.008 104.222 361.796 0 233.004 0zm11.48 242.659-63.512 75.511c-5.333 6.34-14.797 7.156-21.135 1.824-6.34-5.333-7.157-14.795-1.824-21.135l59.991-71.325V58.028c0-8.284 6.716-15 15-15s15 6.716 15 15v174.976c0 3.532-1.247 6.952-3.52 9.655z"/></svg><svg aria-hidden="true" data-prefix="fas" data-icon="envelope" class="bsvg-inline--fa bfa-envelope bfa-w-16" viewBox="0 0 512 512" id="email" xmlns="http://www.w3.org/2000/svg"><path fill="#03A9F5" d="M502.3 190.8c3.9-3.1 9.7-.2 9.7 4.7V400c0 26.5-21.5 48-48 48H48c-26.5 0-48-21.5-48-48V195.6c0-5 5.7-7.8 9.7-4.7 22.4 17.4 52.1 39.5 154.1 113.6 21.1 15.4 56.7 47.8 92.2 47.6 35.7.3 72-32.8 92.3-47.6 102-74.1 131.6-96.3 154-113.7zM256 320c23.2.4 56.6-29.2 73.4-41.4 132.7-96.3 142.8-104.7 173.4-128.7 5.8-4.5 9.2-11.5 9.2-18.9v-19c0-26.5-21.5-48-48-48H48C21.5 64 0 85.5 0 112v19c0 7.4 3.4 14.3 9.2 18.9 30.6 23.9 40.7 32.4 173.4 128.7 16.8 12.2 50.2 41.8 73.4 41.4z"/></svg><svg style="enable-background:new 0 0 512 512" viewBox="0 0 512 512" xml:space="preserve" id="instagram" xmlns="http://www.w3.org/2000/svg"><radialGradient cx="201.774" cy="461.359" gradientUnits="userSpaceOnUse" id="ca" r="261.109"><stop offset="0" style="stop-color:#ffd776"/><stop offset=".246" style="stop-color:#f3a554"/><stop offset=".379" style="stop-color:#f15c3c"/><stop offset=".539" style="stop-color:#d94867"/><stop offset=".7" style="stop-color:#c32f87"/><stop offset=".912" style="stop-color:#7d63a7"/><stop offset=".985" style="stop-color:#5c6cb3"/></radialGradient><path d="M378.7 247.7c-3.3-8.5-7.7-15.7-14.9-22.9-7.2-7.2-14.4-11.6-22.9-14.9-8.2-3.2-17.7-5.4-31.4-6-13.8-.6-18.2-.8-53.4-.8s-39.6.1-53.4.8c-13.8.6-23.2 2.8-31.4 6-8.5 3.3-15.7 7.7-22.9 14.9-7.2 7.2-11.6 14.4-14.9 22.9-3.2 8.2-5.4 17.7-6 31.4-.6 13.8-.8 18.2-.8 53.4s.1 39.6.8 53.4c.6 13.8 2.8 23.2 6 31.4 3.3 8.5 7.7 15.7 14.9 22.9 7.2 7.2 14.4 11.6 22.9 14.9 8.2 3.2 17.7 5.4 31.4 6 13.8.6 18.2.8 53.4.8s39.6-.1 53.4-.8c13.8-.6 23.2-2.8 31.4-6 8.5-3.3 15.7-7.7 22.9-14.9 7.2-7.2 11.6-14.4 14.9-22.9 3.2-8.2 5.4-17.7 6-31.4.6-13.8.8-18.2.8-53.4s-.1-39.6-.8-53.4c-.6-13.8-2.8-23.2-6-31.4zm-17.3 137.1c-.6 12.6-2.7 19.5-4.5 24-2.3 6-5.2 10.4-9.7 14.9-4.5 4.5-8.8 7.3-14.9 9.7-4.6 1.8-11.4 3.9-24 4.5-13.7.6-17.7.8-52.3.8s-38.7-.1-52.3-.8c-12.6-.6-19.5-2.7-24-4.5-6-2.3-10.4-5.2-14.9-9.7-4.5-4.5-7.3-8.8-9.7-14.9-1.8-4.6-3.9-11.4-4.5-24-.6-13.7-.8-17.8-.8-52.3s.1-38.7.8-52.3c.6-12.6 2.7-19.5 4.5-24 2.3-6 5.2-10.4 9.7-14.9 4.5-4.5 8.8-7.3 14.9-9.7 4.6-1.8 11.4-3.9 24-4.5 13.7-.6 17.8-.8 52.3-.8s38.7.1 52.3.8c12.6.6 19.5 2.7 24 4.5 6 2.3 10.4 5.2 14.9 9.7 4.5 4.5 7.3 8.8 9.7 14.9 1.8 4.6 3.9 11.4 4.5 24 .6 13.7.8 17.8.8 52.3s-.2 38.7-.8 52.3z" style="fill:url(#ca)"/><radialGradient cx="228.154" cy="398.669" gradientUnits="userSpaceOnUse" id="cb" r="134.083"><stop offset="0" style="stop-color:#ffd776"/><stop offset=".246" style="stop-color:#f3a554"/><stop offset=".379" style="stop-color:#f15c3c"/><stop offset=".607" style="stop-color:#d94867"/><stop offset=".835" style="stop-color:#c32f87"/><stop offset=".958" style="stop-color:#7d63a7"/><stop offset="1" style="stop-color:#5c6cb3"/></radialGradient><path d="M256 266c-36.7 0-66.5 29.8-66.5 66.5S219.3 399 256 399s66.5-29.8 66.5-66.5S292.7 266 256 266zm0 109.7c-23.8 0-43.2-19.3-43.2-43.2 0-23.8 19.3-43.2 43.2-43.2s43.2 19.3 43.2 43.2c0 23.8-19.4 43.2-43.2 43.2z" style="fill:url(#cb)"/><radialGradient cx="318.622" cy="278.83" gradientUnits="userSpaceOnUse" id="cc" r="31.333"><stop offset="0" style="stop-color:#5f6db3"/><stop offset="1" style="stop-color:#5c6cb3"/></radialGradient><circle cx="325.1" cy="263.4" r="15.5" style="fill:url(#cc)"/></svg><svg fill="none" viewBox="0 0 115 31" id="logo" xmlns="http://www.w3.org/2000/svg"><path d="M.798 30V1.636h10.636c2.179 0 4.007.379 5.484 1.136 1.487.757 2.609 1.819 3.366 3.185.766 1.358 1.15 2.941 1.15 4.75 0 1.82-.389 3.398-1.164 4.737-.766 1.33-1.898 2.36-3.393 3.089-1.496.72-3.333 1.08-5.512 1.08H3.789v-4.266h6.883c1.274 0 2.318-.175 3.13-.526.813-.36 1.413-.882 1.8-1.565.398-.692.596-1.542.596-2.548 0-1.007-.198-1.865-.595-2.576-.397-.72-1.002-1.265-1.815-1.634-.812-.379-1.86-.568-3.143-.568h-4.71V30H.799ZM15.45 17.148 22.472 30h-5.734L9.841 17.148h5.61Zm19.604 13.268c-2.133 0-3.975-.444-5.526-1.33-1.542-.896-2.728-2.16-3.56-3.795-.83-1.643-1.245-3.578-1.245-5.803 0-2.188.415-4.108 1.246-5.761.84-1.662 2.013-2.955 3.518-3.878 1.505-.932 3.273-1.399 5.304-1.399 1.311 0 2.548.213 3.712.637a8.388 8.388 0 0 1 3.102 1.94c.905.876 1.616 1.994 2.133 3.35.517 1.349.775 2.955.775 4.82v1.538H27.077v-3.38h12.63c-.009-.96-.216-1.814-.623-2.562a4.531 4.531 0 0 0-1.703-1.786c-.72-.434-1.56-.651-2.52-.651-1.026 0-1.926.25-2.701.748a5.153 5.153 0 0 0-1.815 1.939 5.58 5.58 0 0 0-.65 2.617v2.95c0 1.237.226 2.3.678 3.186.453.877 1.085 1.55 1.897 2.021.813.462 1.764.693 2.853.693.73 0 1.39-.102 1.98-.305a4.395 4.395 0 0 0 1.538-.928c.434-.406.762-.91.983-1.51l4.682.527a7.298 7.298 0 0 1-1.69 3.24c-.822.915-1.874 1.626-3.158 2.134-1.283.498-2.751.748-4.404.748Zm18.714-12.88V30h-5.013V8.727h4.792v3.615h.249a6.079 6.079 0 0 1 2.34-2.84c1.08-.7 2.415-1.052 4.003-1.052 1.468 0 2.747.314 3.836.942 1.099.628 1.948 1.537 2.548 2.728.61 1.191.91 2.636.9 4.335V30H62.41V17.23c0-1.421-.37-2.534-1.108-3.337-.73-.803-1.74-1.205-3.033-1.205-.877 0-1.657.194-2.34.582-.674.378-1.205.928-1.593 1.648-.378.72-.568 1.593-.568 2.617Zm29.375-8.809v3.878h-12.23V8.727h12.23Zm-9.21-5.096h5.013V23.6c0 .675.102 1.192.305 1.552.212.35.49.59.831.72.342.13.72.194 1.136.194.314 0 .6-.023.858-.07a7.5 7.5 0 0 0 .61-.124l.845 3.92c-.268.092-.651.193-1.15.304-.49.11-1.09.175-1.8.194-1.256.037-2.387-.152-3.393-.568a5.278 5.278 0 0 1-2.396-1.967c-.582-.886-.868-1.994-.859-3.323V3.63ZM87.336 30V8.727h5.013V30h-5.013Zm2.52-24.292a2.925 2.925 0 0 1-2.05-.79c-.572-.535-.858-1.177-.858-1.924 0-.758.286-1.4.859-1.925a2.897 2.897 0 0 1 2.05-.804c.803 0 1.486.268 2.05.804.572.526.858 1.167.858 1.925 0 .747-.287 1.39-.859 1.925-.563.526-1.246.79-2.05.79ZM97.228 30v-3.185l10.968-13.753v-.18H97.588V8.727h16.744v3.421l-10.443 13.517v.18h10.803V30H97.228Z" fill="#fff"/></svg><svg viewBox="0 0 384 512" id="map" xmlns="http://www.w3.org/2000/svg"><!--! Font Awesome Pro 6.0.0 by @fontawesome - https://fontawesome.com License - https://fontawesome.com/license (Commercial License) Copyright 2022 Fonticons, Inc.--><path fill="#03A9F5" d="M168.3 499.2C116.1 435 0 279.4 0 192 0 85.96 85.96 0 192 0c106 0 192 85.96 192 192 0 87.4-117 243-168.3 307.2-12.3 15.3-35.1 15.3-47.4 0zM192 256c35.3 0 64-28.7 64-64s-28.7-64-64-64-64 28.7-64 64 28.7 64 64 64z"/></svg><svg style="enable-background:new 0 0 64 64" viewBox="0 0 64 64" xml:space="preserve" id="ok" xmlns="http://www.w3.org/2000/svg"><style>.fst15{fill:#03a9f5}</style><g id="fLayer_11"><path class="fst15" d="M32 2c-7.4 0-13.5 6-13.5 13.5 0 7.4 6 13.5 13.5 13.5s13.5-6 13.5-13.5S39.4 2 32 2zm0 18c-2.5 0-4.5-2-4.5-4.5s2-4.5 4.5-4.5 4.5 2 4.5 4.5-2 4.5-4.5 4.5zM48.6 38.1c-3.4 1.9-7.1 3.2-10.8 3.8l10.5 12.9c1.2 1.5 1.5 3.6.4 5.2-1.7 2.6-5.3 2.7-7.1.4l-9.7-11.9-9.6 11.9c-.9 1.1-2.1 1.6-3.4 1.6-1.3 0-2.6-.6-3.5-1.8-1.1-1.5-1-4 .2-5.5l10.4-13c-3.7-.7-7.4-1.9-10.7-3.8-2.1-1.2-2.8-3.8-1.6-6 1.2-2.1 3.9-2.8 6-1.6 7.6 4.3 17.1 4.3 24.8.1 2.1-1.2 4.8-.4 5.9 1.7 1.1 2.2.3 4.8-1.8 6z"/></g></svg><svg aria-hidden="true" data-prefix="fas" data-icon="phone-alt" class="gsvg-inline--fa gfa-phone-alt gfa-w-16" viewBox="0 0 512 512" id="phone" xmlns="http://www.w3.org/2000/svg"><path fill="#03A9F5" d="m497.39 361.8-112-48a24 24 0 0 0-28 6.9l-49.6 60.6A370.66 370.66 0 0 1 130.6 204.11l60.6-49.6a23.94 23.94 0 0 0 6.9-28l-48-112A24.16 24.16 0 0 0 122.6.61l-104 24A24 24 0 0 0 0 48c0 256.5 207.9 464 464 464a24 24 0 0 0 23.4-18.6l24-104a24.29 24.29 0 0 0-14.01-27.6z"/></svg><svg aria-hidden="true" data-prefix="fab" data-icon="telegram-plane" class="hsvg-inline--fa hfa-telegram-plane hfa-w-14" viewBox="0 0 448 512" id="telegram" xmlns="http://www.w3.org/2000/svg"><path fill="#03A9F5" d="m446.7 98.6-67.6 318.8c-5.1 22.5-18.4 28.1-37.3 17.5l-103-75.9-49.7 47.8c-5.5 5.5-10.1 10.1-20.7 10.1l7.4-104.9 190.9-172.5c8.3-7.4-1.8-11.5-12.9-4.1L117.8 284 16.2 252.2c-22.1-6.9-22.5-22.1 4.6-32.7L418.2 66.4c18.4-6.9 34.5 4.1 28.5 32.2z"/></svg><svg aria-hidden="true" data-prefix="fab" data-icon="vk" class="isvg-inline--fa ifa-vk ifa-w-18" viewBox="0 0 576 512" id="vk" xmlns="http://www.w3.org/2000/svg"><path fill="#03A9F5" d="M545 117.7c3.7-12.5 0-21.7-17.8-21.7h-58.9c-15 0-21.9 7.9-25.6 16.7 0 0-30 73.1-72.4 120.5-13.7 13.7-20 18.1-27.5 18.1-3.7 0-9.4-4.4-9.4-16.9V117.7c0-15-4.2-21.7-16.6-21.7h-92.6c-9.4 0-15 7-15 13.5 0 14.2 21.2 17.5 23.4 57.5v86.8c0 19-3.4 22.5-10.9 22.5-20 0-68.6-73.4-97.4-157.4-5.8-16.3-11.5-22.9-26.6-22.9H38.8c-16.8 0-20.2 7.9-20.2 16.7 0 15.6 20 93.1 93.1 195.5C160.4 378.1 229 416 291.4 416c37.5 0 42.1-8.4 42.1-22.9 0-66.8-3.4-73.1 15.4-73.1 8.7 0 23.7 4.4 58.7 38.1 40 40 46.6 57.9 69 57.9h58.9c16.8 0 25.3-8.4 20.4-25-11.2-34.9-86.9-106.7-90.3-111.5-8.7-11.2-6.2-16.2 0-26.2.1-.1 72-101.3 79.4-135.6z"/></svg></svg>